<!-- Generated by IcoMoon.io -->
<svg version="1.1" xmlns="http://www.w3.org/2000/svg" width="1008" height="1024" viewBox="0 0 1008 1024">
<path fill="rgb(32, 45, 71)" d="M518.914 196.394c0 6.565-3.179 8.353-5.969 3.179-2.979-5.571-5.969-4.975-5.969 1.391-0.199 3.179-2.779 8.552-5.969 12.533-5.969 6.763-7.757 11.937-3.985 11.937 0.993 0 1.391 1.391 0.795 2.979-0.993 2.384 0.397 2.979 6.763 2.979 10.549 0 13.527 3.379 15.116 17.313 1.59 14.123 6.366 21.284 20.29 30.836 10.749 7.36 10.749 7.36 10.749 2.579 0-4.18 0.993-4.975 6.167-4.975s5.969 0.596 4.578 3.379c-5.373 12.335-2.186 29.041 7.757 39.786l3.985 4.578h-12.136c-10.944 0-12.335 0.397-12.335 3.985 0 3.785 1.391 3.985 24.471 3.985 20.886 0 25.266-0.596 30.836-3.985 25.862-15.712 6.366-73.802-28.842-86.534-29.635-10.749-33.022-13.726-47.344-40.382-6.167-11.341-8.949-13.129-8.949-5.571z"></path>
<path fill="rgb(32, 45, 71)" d="M389.612 237.174c-9.943 3.179-17.707 8.154-25.464 17.107-10.944 12.533-15.116 25.266-13.328 41.375 0.795 6.763 1.788 79.969 2.186 162.522 0.993 162.323 0.397 156.353 11.143 153.572 9.343-2.384 9.543-4.777 9.543-153.771 0-122.537-0.397-140.84-3.179-150.389-8.552-29.041 8.552-54.902 36.199-54.505 5.77 0 12.533 0.993 14.52 2.186 9.343 4.975 18.701-1.391 14.322-9.743-4.777-8.552-30.035-13.129-45.953-8.353z"></path>
<path fill="rgb(32, 45, 71)" d="M77.294 238.568c0 0.596 1.987 4.578 4.379 8.75l4.578 7.757 14.918-0.199c18.701-0.199 29.235 3.785 39.388 15.315 3.985 4.578 19.297 29.835 33.817 55.893 14.52 26.259 27.252 48.934 28.246 50.327 1.391 2.579 2.779 2.384 8.75-0.795 3.985-2.186 7.161-4.975 7.161-6.167 0-3.379-53.114-97.876-60.275-107.42-7.558-9.943-18.303-17.906-29.435-21.681-7.956-2.779-51.525-4.379-51.525-1.788z"></path>
<path fill="rgb(32, 45, 71)" d="M447.299 238.173c0 0.596 4.975 2.384 10.944 4.18 18.303 5.174 24.669 12.732 43.563 51.525 38.792 79.572 112.793 232.747 122.338 253.037l10.143 22.079v105.036l4.975-8.552c2.779-4.777 6.763-11.143 8.949-14.322 3.785-5.174 3.985-8.552 3.985-47.145v-41.574l-26.656-55.697c-87.726-183.409-118.165-245.081-124.929-253.832-8.552-10.944-19.694-15.514-37.998-15.514-8.353 0-15.315 0.397-15.315 0.795z"></path>
<path fill="rgb(32, 45, 71)" d="M780.304 241.752c1.788 2.384 3.179 6.565 3.179 8.949v4.578h81.559l7.956-7.161c4.379-3.985 7.956-7.956 7.956-8.949s-23.071-1.788-51.922-1.788h-51.723l2.979 4.379z"></path>
<path fill="rgb(32, 45, 71)" d="M895.285 239.763c-11.143 3.785-18.105 13.527-41.574 59.48-12.533 24.471-28.445 55.893-35.605 69.821-20.092 39.388-34.413 50.527-75.391 59.083-32.426 6.962-44.96 14.918-55.101 34.811-4.578 8.949-6.962 30.035-4.777 41.773 0.993 5.571 2.384 7.161 5.77 7.161 7.36 0 8.75-2.384 9.943-18.105 1.192-17.707 6.167-29.041 15.712-36.399 8.353-6.167 13.924-8.353 35.009-12.931 34.811-7.757 53.511-18.105 69.421-38.991 4.578-6.167 23.671-41.574 42.369-78.578 37.399-74.597 40.779-79.373 58.685-84.547 5.969-1.788 10.944-3.585 10.944-4.18 0-1.59-29.041-0.397-35.407 1.59z"></path>
<path fill="rgb(32, 45, 71)" d="M791.246 268.607c-15.315 7.956-30.235 30.435-19.893 30.435 1.987 0 4.777 1.391 6.167 2.979 2.186 2.579 3.179 1.59 6.962-6.565 5.174-11.143 11.54-15.907 23.271-17.508 15.514-1.987 29.041 9.143 31.433 25.464l0.993 8.552 5.571-9.143c6.565-11.143 6.763-14.719 0.397-24.072-10.749-15.712-34.811-20.092-54.902-10.143z"></path>
<path fill="rgb(32, 45, 71)" d="M83.66 272.388c-4.379 2.979-4.379 3.585-4.379 56.093 0 29.235 0.993 56.293 1.987 60.275 1.192 3.785 3.985 8.949 6.565 11.341 4.18 3.785 5.571 4.18 10.944 2.186 7.36-2.579 7.558-3.179 2.979-8.353-3.179-3.379-3.785-10.143-4.578-61.467-0.993-55.498-1.192-57.891-4.975-60.474-3.585-2.384-4.777-2.186-8.552 0.397z"></path>
<path fill="rgb(32, 45, 71)" d="M108.328 287.109c-1.788 4.777-3.179 13.726-3.179 22.079 0 7.757-0.993 24.868-2.186 37.998-2.779 27.65-0.993 36.199 8.154 43.963 8.552 7.36 35.801 17.107 47.145 16.907 11.937 0 23.271 4.578 26.656 10.549 2.384 4.578 2.384 4.578 3.985 0.795 0.795-2.186 1.59-9.743 1.59-16.907 0.199-23.871-11.937-40.779-35.208-48.735-5.174-1.59-10.749-4.18-12.533-5.571-8.353-6.366-15.907-26.855-8.949-24.072 5.969 2.384 8.75-12.136 4.18-21.085-1.59-3.179-2.979-9.343-2.979-13.924 0-9.343-1.59-9.743-7.956-2.979-5.969 6.366-7.757 6.366-10.143-0.993-2.779-7.956-4.777-7.558-8.552 1.987z"></path>
<path fill="rgb(32, 45, 71)" d="M425.814 288.699c-2.384 3.179-4.379 6.962-4.379 8.154s-3.985 2.186-9.743 2.186c-8.949 0-10.143-0.596-13.924-6.962-2.186-3.785-4.975-6.962-5.969-6.962-2.384 0-4.975 17.313-4.379 29.235 0.199 3.179 1.391 4.578 4.18 4.578 2.186 0 3.985 0.993 3.985 2.186s-1.788 1.788-3.985 1.192c-2.979-0.795-3.985 0-3.985 2.779 0 3.179 0.993 3.585 4.975 2.579 3.785-0.993 4.975-0.397 4.975 1.987 0 1.788-1.391 3.179-3.179 3.179-1.987 0-2.579 1.192-1.788 3.785 0.596 2.186-1.192 8.154-4.379 14.322-9.943 19.496-8.353 56.093 3.379 75.985 2.384 4.18 5.174 7.36 5.969 7.36 2.384 0 4.578-28.047 2.979-39.587-1.391-10.143 0-12.335 4.578-7.757 1.59 1.59 2.384 9.943 2.579 23.271 0 11.739 0.596 19.893 1.192 18.502 0.397-1.192 2.186-2.384 3.785-2.384 2.186 0 2.779-3.585 2.779-17.107 0-16.307 1.987-24.669 5.969-24.669 1.192 0 1.59 5.373 0.795 13.726-0.795 7.558-0.795 15.315 0 17.107 0.993 2.979 1.788 2.779 5.174-1.192 2.186-2.579 3.785-3.985 3.985-2.779 0 4.975-8.75 15.315-21.681 25.663-11.143 8.949-15.116 13.726-20.489 24.471l-6.565 13.328-0.993 65.846c-0.993 64.055-1.192 65.846-5.373 71.815-4.777 6.565-17.107 12.732-25.464 12.732-4.379 0-4.975 0.795-4.975 7.956 0 7.956 0 7.956 7.558 7.956 25.663 0 46.152-20.489 46.152-46.351 0-3.985-0.795-7.36-1.987-7.36-2.579 0-7.956-10.749-7.956-15.712 0-2.186 2.186-5.571 4.975-7.36l4.975-3.179v-37.199c0-45.755 1.987-54.306 15.116-66.442 27.65-25.464 30.435-28.643 33.817-40.382 5.174-18.105 2.979-31.036-9.343-56.491-5.969-12.732-9.743-22.871-9.143-24.868 0.993-2.186-0.199-3.785-3.179-4.777-3.785-1.59-3.985-1.987-0.993-3.179 1.788-0.795 4.379-0.795 5.571 0 0.993 0.596 1.987 0 1.987-1.59s-1.987-3.585-4.379-4.379c-4.379-1.391-4.379-1.59 1.192-2.384l5.77-0.993-1.391-13.527c-0.596-7.36-1.987-15.514-2.779-18.105-1.59-4.379-1.788-4.379-5.969 1.788z"></path>
<path fill="rgb(32, 45, 71)" d="M799.004 286.312c-6.962 3.785-11.341 12.136-13.726 26.259-0.993 6.167-3.379 13.527-5.373 16.307s-11.341 8.75-20.688 13.328c-25.862 12.732-35.407 24.471-36.999 46.549-0.993 13.726 2.384 24.669 8.75 29.041 10.549 6.763 39.985-1.391 49.329-13.924 4.379-5.969 5.571-19.496 2.384-30.035-1.59-5.174-1.391-5.373 2.186-3.379 2.186 0.993 5.174 4.777 6.565 8.154s3.179 5.373 3.985 4.578c2.779-2.979 12.335-35.407 12.533-42.369 0.199-3.985-1.391-12.533-3.379-19.297-3.585-11.54-3.585-12.732-0.397-17.508 3.585-5.373 7.161-6.167 12.931-2.579 2.979 1.788 4.578 1.788 6.962-0.199 4.379-3.785 3.985-7.558-1.788-13.129-5.571-5.77-14.918-6.366-23.271-1.788z"></path>
<path fill="rgb(32, 45, 71)" d="M609.427 336.242c-2.186 0.397-8.949 2.779-14.918 4.975-20.092 7.36-21.284 7.558-26.656 3.379-7.161-5.571-14.123-1.59-9.543 5.571 2.384 3.785 12.533 6.763 18.701 5.571 3.179-0.795 11.143-3.585 17.508-6.167 14.123-5.571 25.663-6.167 31.632-1.391 2.384 1.987 7.161 11.54 10.944 21.482 3.585 9.743 10.349 25.067 14.918 33.817 9.343 18.105 26.060 42.565 26.060 38.196 0-1.59-5.77-14.322-12.533-28.445-6.962-14.123-15.712-33.817-19.297-43.563-8.353-22.471-13.726-30.035-23.471-32.824-3.985-0.993-7.757-1.788-8.353-1.788-0.596 0.199-2.779 0.596-4.975 1.192z"></path>
<path fill="rgb(32, 45, 71)" d="M591.523 368.072c-0.596 3.179-2.384 9.743-4.18 14.719-2.979 9.143-1.788 17.707 2.979 20.688 1.192 0.596 2.186 4.975 2.186 9.543 0 9.343 5.373 22.471 11.143 27.65 1.987 1.788 7.757 5.174 12.732 7.757 13.328 6.565 13.726 7.161 11.937 13.726-2.779 9.943 0.993 18.899 12.931 29.041 12.931 10.944 15.315 17.508 13.527 37.599-1.391 17.906 2.979 29.041 15.315 38.991 18.899 14.918 23.471 20.29 24.868 30.035 2.384 16.307-4.578 29.435-22.471 41.773-18.303 12.533-27.849 27.252-34.413 52.915-3.379 13.129-3.785 22.079-3.785 77.383v62.262h17.906v-9.543c0.199-36.199 2.186-130.297 2.979-137.659 1.391-12.335 8.75-22.277 21.88-29.835 22.671-12.931 35.605-32.625 35.407-53.909-0.199-15.712-6.167-25.663-23.871-39.985-15.514-12.732-20.092-20.886-17.508-32.029 0.795-3.585 1.987-20.688 2.384-38.395 0.596-28.842 0.397-33.022-3.379-43.163-5.174-13.924-15.712-25.464-30.836-33.817l-11.937-6.565 0.596-10.143c0.397-5.77-0.199-13.328-1.391-16.907s-2.579-8.949-3.179-12.136c-1.391-6.763-3.585-6.962-6.565-0.397-1.788 3.785-3.785 4.975-8.949 4.975s-7.36-1.192-9.343-4.975c-3.379-6.366-5.571-6.366-6.962 0.397z"></path>
<path fill="rgb(32, 45, 71)" d="M205.205 394.927c-0.993 4.777-1.788 16.707-1.788 26.458 0.199 20.489 2.979 26.855 13.924 32.228 6.167 2.979 6.565 3.585 5.571 11.54-1.391 12.533 2.579 27.252 11.937 44.166l8.154 14.918 3.785-7.558c1.987-4.379 7.558-11.739 12.335-16.707s9.743-10.944 10.944-13.328c4.578-8.949 1.788-23.471-6.167-31.83-3.785-3.985-3.785-4.379-0.596-9.343 1.788-2.779 3.379-8.353 3.379-12.533-0.199-4.18-0.199-14.52-0.199-22.871 0-8.552-0.993-17.313-2.186-19.694l-2.384-4.18-4.578 4.379c-2.579 2.384-5.571 6.763-6.962 9.743-1.987 5.174-2.579 5.373-14.52 4.578-8.154-0.397-12.931-1.788-14.322-3.785-4.18-6.366-11.341-14.52-12.931-14.52-0.795 0-2.384 3.785-3.379 8.353z"></path>
<path fill="rgb(32, 45, 71)" d="M101.166 408.255c-15.116 4.578-23.271 12.533-20.886 20.092 1.987 6.167 8.154 6.565 17.508 1.192 20.092-11.937 43.563-1.788 54.108 23.271 2.579 6.366 2.979 30.836 2.979 193.358v185.999h19.893l-0.397-187.588-0.596-187.389-6.763-13.726c-3.585-7.558-10.143-17.107-14.52-21.284-12.931-12.533-35.605-18.701-51.326-13.924z"></path>
<path fill="rgb(32, 45, 71)" d="M156.867 415.217c0 0.795 3.379 7.558 7.757 14.719 4.18 7.36 11.937 21.681 17.107 32.029 19.893 39.786 144.223 265.173 154.367 280.091 3.379 4.777 8.154 9.143 10.944 9.743 8.949 2.186 31.234-0.397 39.587-4.777 29.635-15.315 38.792-56.691 17.508-80.168-12.335-13.726-27.849-19.098-44.363-15.514-10.549 2.384-15.907 6.763-15.907 12.732 0 7.36 4.379 9.343 12.533 5.969 9.743-3.985 14.52-3.785 24.669 1.192 14.52 6.962 20.688 25.862 13.726 42.17-5.77 13.726-27.451 26.060-38.792 22.079-3.585-1.391-11.739-14.52-32.426-51.525-42.17-75.789-59.48-107.023-87.13-158.151-46.351-85.739-56.691-104.041-60.871-106.824-4.777-3.179-18.701-5.77-18.701-3.785z"></path>
<path fill="rgb(32, 45, 71)" d="M112.903 456.593c-6.962 13.527-10.944 14.719-19.496 5.373-7.757-8.353-14.918-7.558-15.712 1.788-0.596 5.174 0.596 7.757 6.167 13.328 6.366 6.366 8.154 6.962 17.906 6.962 8.949 0 12.136-0.993 17.313-5.174 14.52-12.335 16.107-30.635 2.579-30.635-3.379 0-5.571 2.186-8.75 8.353z"></path>
<path fill="rgb(32, 45, 71)" d="M435.366 455.997c-21.284 11.143-21.482 40.978-0.199 51.922 4.379 2.186 10.143 3.985 12.732 3.985 4.777 0 4.777-0.199 2.779-8.949-1.192-4.975-3.179-8.949-4.379-8.949-7.558 0-11.739-14.918-5.77-20.688 3.379-3.585 13.726-4.379 15.712-1.192s10.749 2.186 12.533-1.59c4.379-8.154-6.565-18.303-19.893-18.303-3.585 0-9.743 1.59-13.527 3.785z"></path>
<path fill="rgb(32, 45, 71)" d="M756.034 502.943l-24.272 48.735v32.625c0 29.835-0.397 32.824-4.18 37.799-2.186 2.979-5.969 5.174-8.75 5.174-5.373 0-8.154 5.174-3.785 6.763 4.975 1.987 16.107 1.391 21.482-1.192 9.943-4.379 13.129-15.712 13.129-46.748v-27.849l23.871-48.139c13.129-26.458 23.871-49.329 23.871-50.727 0-1.59-1.987-3.179-4.379-3.985-11.739-2.979-11.341-3.785-36.999 47.543z"></path>
<path fill="rgb(32, 45, 71)" d="M731.17 470.516c-4.975 7.757-5.373 9.543-4.18 20.688 1.59 16.507-2.779 21.88-21.085 25.067-13.129 2.186-23.671 6.366-26.259 10.349-2.579 3.785-1.788 13.129 1.59 18.105 4.18 6.565 5.373 6.366 9.343-1.788 3.379-7.161 4.379-7.558 27.054-13.328 13.129-3.179 20.092-11.54 20.092-23.871 0-7.36 0.795-9.743 2.979-9.743 1.788 0 3.585 1.391 4.18 2.979 1.788 4.18 4.578 1.788 8.949-7.757 4.379-9.943 5.174-20.688 1.192-17.313-3.985 3.179-14.918-1.59-16.707-7.161-1.59-4.578-1.788-4.379-7.161 3.785z"></path>
<path fill="rgb(32, 45, 71)" d="M280.2 476.088c0 9.343-4.777 18.899-14.918 29.635-11.143 11.937-15.907 25.067-12.931 35.801 0.993 3.985 8.353 18.303 16.107 32.029s17.707 31.036 22.079 38.792c10.749 19.297 11.54 19.694 11.54 5.571 0-15.315-2.979-23.671-17.906-49.129-12.136-20.688-15.514-30.635-13.328-39.388 1.192-4.777 12.732-18.899 13.924-17.313 0.397 0.397 8.552 14.52 17.906 31.036l17.107 30.435 0.596 46.351 0.596 46.549 8.353 16.707c14.322 28.246 26.259 38.196 36.199 30.035 6.763-5.373 4.18-11.143-6.763-15.315-5.373-1.987-11.143-6.167-14.52-10.549l-5.373-6.962-1.987-115.773-11.739-19.893c-6.366-10.944-18.701-32.228-27.451-47.344-8.75-14.918-16.307-27.252-16.707-27.252s-0.795 2.779-0.795 5.969z"></path>
<path fill="rgb(32, 45, 71)" d="M90.225 496.378c-11.341 8.75-10.944 3.785-10.944 176.645v159.143h17.906v-156.953c0-86.931 0.795-159.143 1.788-161.726s4.578-7.558 8.154-10.944c6.167-5.969 6.167-6.366 2.384-8.353-6.366-3.379-13.328-2.579-19.297 2.186z"></path>
<path fill="rgb(32, 45, 71)" d="M113.102 523.234c0 3.179-0.596 7.757-1.391 10.143-0.993 4.18-0.596 4.578 3.585 4.18 4.975-0.795 15.315 7.161 12.931 9.743-0.795 0.596-2.779-0.795-4.379-3.379-3.379-4.578-10.749-5.174-12.136-0.795-0.596 1.391 0.596 1.788 3.179 1.192 2.384-0.596 4.18-0.199 4.18 1.192 0 1.192-1.391 2.186-3.179 2.186s-2.779 1.192-2.186 2.384c0.397 1.391-1.192 6.565-3.785 11.54-4.379 8.353-4.777 11.341-4.777 44.166-0.199 28.445 0.397 36.199 2.979 41.177 4.975 9.743 8.949 7.956 8.949-3.985 0-13.726 4.777-12.136 5.571 1.788 0.993 17.508 8.353 12.136 8.353-6.167 0-7.558 2.579-9.943 4.777-4.18 0.596 1.788 1.192 7.161 1.192 12.136 0 8.154 0.397 8.75 3.379 6.366 6.962-5.969 8.552-14.719 8.552-46.947 0-29.235-0.397-32.228-4.975-41.971-2.779-5.969-4.975-11.937-4.975-13.527s-1.391-2.779-3.179-2.779c-1.59 0-2.384-0.993-1.788-2.186 0.795-1.192 2.579-1.59 4.18-0.993s2.779-0.199 2.779-1.987c0-2.384-1.391-2.979-5.77-2.384-3.379 0.397-5.571 0.199-4.975-0.795 0.596-0.795 3.585-1.59 6.565-1.59 5.373 0 5.571-0.199 4.18-8.949-1.59-10.944-2.979-12.533-5.969-7.161-2.979 5.77-15.116 5.969-16.907 0.199s-4.975-4.777-4.975 1.391z"></path>
<path fill="rgb(32, 45, 71)" d="M434.371 540.345c-1.192 5.77-2.384 6.962-10.349 8.949-6.167 1.788-12.136 5.571-19.098 12.335l-10.143 9.943 3.379 6.962c2.579 5.571 4.975 7.36 11.937 9.343l8.75 2.186-5.174 11.143c-7.161 15.712-7.161 36.399 0 51.922l5.174 10.944 3.379-6.962c1.987-3.785 7.956-11.54 13.328-16.907 12.931-13.328 15.712-22.079 15.712-49.529 0-22.471-2.579-35.801-9.143-49.529-4.379-9.143-6.167-9.343-7.757-0.795z"></path>
<path fill="rgb(32, 45, 71)" d="M439.936 647.566c-12.136 12.732-13.328 16.107-14.52 42.369-1.391 29.041-4.18 35.605-23.071 56.691-17.313 19.297-23.471 32.426-23.471 50.727-0.199 16.907 5.77 32.029 13.129 33.817 2.579 0.596 14.52 0.795 26.855 0.596 19.098-0.596 22.079-0.993 20.489-3.585-1.192-1.987-4.777-2.779-11.937-2.384l-10.349 0.397 4.18-5.174c2.384-2.979 4.18-7.36 4.18-10.143 0-4.18 0.397-4.379 4.18-2.579 5.969 3.379 19.098 2.979 24.669-0.795 14.52-9.543 15.514-32.228 1.192-30.635-3.985 0.397-5.571 2.186-7.161 7.956-0.993 3.985-2.579 7.956-3.379 8.552-2.779 2.979-11.54-1.192-14.52-6.962-4.975-9.543-3.585-17.906 6.167-37.799 13.129-27.252 14.719-35.009 14.719-74.994 0-18.899-0.795-34.413-1.59-34.413s-5.174 3.785-9.743 8.353z"></path>
<path fill="rgb(32, 45, 71)" d="M702.923 645.57c-2.979 4.379-2.779 4.578 0.795 5.174 6.962 1.192 13.726 10.143 16.107 21.284 3.785 18.303 15.315 28.246 30.035 25.862 8.353-1.391 16.707-9.543 18.899-18.105 2.979-11.54-3.985-25.862-15.116-31.632-5.77-2.979-16.307-3.985-18.303-1.788-2.579 2.384 1.192 8.949 5.571 9.943 2.779 0.795 6.565 3.585 8.75 6.167 6.763 8.75 4.18 18.502-4.975 18.502-4.777 0-7.956-4.379-9.943-13.924-2.384-10.749-6.565-17.707-13.527-21.88-8.353-5.174-14.322-4.975-18.303 0.397z"></path>
<path fill="rgb(32, 45, 71)" d="M667.511 671.831c-0.596 1.59-1.788 8.353-2.579 14.918-1.192 11.739-1.192 12.136 3.379 12.136 4.379 0.199 4.578 0.397 1.391 2.779-5.174 3.785-4.379 6.763 1.391 5.571 2.979-0.397 4.975 0 4.975 1.391 0 1.192-1.391 2.186-2.979 2.186-1.788 0-2.779 1.788-2.779 4.379 0.199 2.579-1.59 8.949-4.18 14.322-7.161 15.907-7.161 28.445 0 56.891 9.943 39.587 11.937 45.755 15.116 45.755 2.186 0 2.779-4.777 2.779-25.862 0-21.681 0.397-25.862 2.979-25.862s2.979 4.18 2.979 26.060c0 23.271 0.397 25.862 3.379 25.266 2.579-0.397 4.18-5.571 7.36-21.482l3.985-20.886 3.179 13.924c2.979 12.732 10.349 26.855 14.123 26.855 0.993 0 3.985-3.985 6.962-8.949 10.749-18.502 8.353-43.763-6.366-67.634-13.924-22.471-20.29-35.208-19.297-38.991 0.795-2.579 0-3.785-2.186-3.785-1.788 0-3.179-0.993-3.179-2.186 0-1.391 1.987-1.788 4.975-1.391 5.77 1.192 6.565-1.788 1.59-5.571-3.379-2.384-3.179-2.579 1.192-2.779 4.578 0 4.578-0.397 3.379-10.549-2.779-20.688-4.18-22.871-9.143-13.924-2.579 4.578-4.379 5.373-13.328 5.571-8.353 0.397-10.749-0.397-11.54-3.179-1.788-5.373-6.366-8.353-7.558-4.975z"></path>
<path fill="rgb(32, 45, 71)" d="M108.528 684.164c-0.795 0.795-1.391 6.763-1.391 13.129 0 9.543 0.596 11.54 3.585 11.739 1.987 0 2.384 0.596 0.993 1.192-4.379 1.59-2.979 6.366 1.391 5.174 4.18-1.192 5.77 2.384 1.59 3.785-1.192 0.397-2.384 2.979-2.779 5.77-0.199 2.579-2.186 9.743-4.578 15.712-5.373 14.322-5.174 17.906 0.993 45.556 2.979 12.732 6.366 27.849 7.558 33.817s3.585 11.341 4.975 11.739c2.186 0.795 2.579-4.18 1.788-26.060l-0.795-26.855 4.975 0.397 4.777 0.199-1.391 26.259c-1.192 22.871-0.795 26.458 1.788 26.458 1.59 0 2.979-0.397 2.979-0.993s3.179-15.514 7.161-33.42c8.154-36.199 8.353-50.127 0.993-64.455-2.186-4.578-3.585-9.743-2.979-11.341 0.795-2.186 0-3.179-2.186-3.179-1.788 0-2.979-1.192-2.384-2.579 0.397-1.192 2.979-2.186 5.571-1.788 4.379 0.397 4.578 0.397 1.192-2.186-3.179-2.779-3.179-2.979 0.795-3.985s4.18-1.987 2.779-12.732c-0.795-6.366-1.788-11.937-2.384-12.533-0.397-0.596-2.579 1.192-4.578 3.985-4.975 6.962-19.694 6.962-25.266 0.199-1.987-2.384-4.379-3.785-5.174-2.979z"></path>
<path fill="rgb(32, 45, 71)" d="M739.127 722.163c-1.59 1.987-3.985 7.36-5.174 11.937-2.186 8.154-0.199 23.471 5.77 44.363 3.379 11.54 2.384 31.83-1.987 41.177-4.578 10.143-1.987 11.341 3.785 1.987 8.949-14.52 9.543-22.871 3.785-51.922-5.571-27.65-5.373-37.399 1.391-42.963 1.59-1.391 2.979-3.785 2.979-5.174 0-3.985-6.763-3.379-10.549 0.596z"></path>
<path fill="rgb(32, 45, 71)" d="M325.555 755.185c-7.161 6.167-9.543 11.54-9.543 22.277 0 15.315 5.373 22.079 34.811 44.562 14.719 11.341 20.688 13.129 17.707 5.571-0.596-1.987-8.75-8.949-18.105-15.514-17.107-12.533-25.862-22.871-26.458-31.632-0.795-10.549 0.199-13.924 5.969-20.489 3.179-3.785 5.373-7.36 4.578-8.154-1.987-1.987-3.179-1.391-8.949 3.379z"></path>
</svg>
